<?xml version="1.0" encoding="utf-8"?>
<!-- Generator: Adobe Illustrator 22.0.1, SVG Export Plug-In . SVG Version: 6.00 Build 0)  -->
<svg version="1.1" id="Layer_1" xmlns="http://www.w3.org/2000/svg" xmlns:xlink="http://www.w3.org/1999/xlink" x="0px" y="0px"
	 viewBox="0 0 502.4 99" style="enable-background:new 0 0 502.4 99;" xml:space="preserve">
<style type="text/css">
	.st0{fill:#FEFEFE;}
	.st1{fill:#F89C33;}
	.st2{fill:#0279C1;}
	.st3{fill:#F89C34;}
	.st4{fill:#0379C1;}
	.st5{fill:#F89D34;}
	.st6{fill:#057AC1;}
	.st7{fill:#FCFDFD;}
	.st8{fill:#FEFDFC;}
	.st9{fill:#FAFCFD;}
</style>
<g>
	<g>
		<path class="st0" d="M306.8,0C372,0,437.2,0,502.4,0c0,33,0,66,0,99C334.9,99,167.5,99,0,99C0,66,0,33,0,0c99.8,0,199.7,0,299.5,0
			c-0.6,1.5-1.5,2.9-1.8,4.4c-2.5,10.9-3.9,11.8-14,8.4c-1.1-0.4-2.3-0.6-3.5-1c-6.6-2-8.1-1-7.5,5.5c0.2,2.7,1.6,5.3,2,8
			c0.4,3.3,0.7,6.7,0.5,10.1c-0.5,8.3-2.3,16.7-1.8,24.9c0.6,8.9,4.1,17.2,11.6,22.9c10.2,7.8,21.5,9.2,33.9,6.7
			c11.9-2.4,14.5-5.1,14.1-17.3c-0.2-5-2-7.3-7.2-7.4c-4.9-0.1-5,2.9-4.8,6.3c0.2,4.1-1.1,6.9-5.6,7.9c-11.4,2.6-21.8-2.9-25.7-14
			c-3.3-9.3-3-18.7-0.4-28.2c2.6-9.6,9.4-13.5,18.2-15c8-1.3,10.4,0.4,11.4,9.1c0.5,4.6,2.7,4.9,6.3,4.9c3.8,0,6.2-1,5.9-5.4
			c-0.2-3.2-0.3-6.5,0.1-9.6c0.5-4.5-1.6-7.3-5.6-7.7C316.4,12.6,311.8,6.2,306.8,0z M45.6,12.4c0-0.1,0-0.1,0-0.2
			c-5.2,0-10.5-0.2-15.7,0.1c-2,0.1-5.3,1.6-5.4,2.7c-0.2,2.2,0.9,6.2,2.3,6.6c3.6,1.1,4.1,3.1,4.1,6.2c-0.1,14.9,0,29.7,0,44.6
			c0,3.4-0.8,5.9-4.4,7.6c-1.6,0.8-2.5,4.5-2.3,6.7c0.1,1,3.6,2.4,5.6,2.5c8,0.3,16.1-0.2,24.1,0.2c18.1,0.7,36.1-8.7,37.8-36
			c0.2-3.2,0.2-6.4,0-9.6c-1-17.6-13-30-30.5-31.3C56.1,12,50.8,12.4,45.6,12.4z M491.3,69.5c-0.5-4.8-0.5-7.6-1.1-10.4
			c-1.6-8.1-7.8-14.7-14.7-15.7c-9.6-1.4-14.9,1.1-19.9,9.8c-1.8,3.1-2.6,6.7-4.3,9.8c-3.5,6.4-7.4,12.5-14.3,15.8
			c-6.6,3.1-11.1,0.5-11.5-6.8c-0.4-7.6,0.3-15.3-0.2-22.9c-0.4-6.3,1.6-8.9,8-8.2c3.2,0.4,6.3,0.3,6.6-4.5c0.4-6.1-3.8-5.3-7.2-5
			c-5.9,0.5-8-1.8-7.5-7.6c0.1-1.4-1.4-4-2.6-4.3c-1.5-0.4-4.3,0.5-5.1,1.7c-3,4.8-6.1,9-11.6,11.7c-2.8,1.3-4.1,6.7-0.1,7.5
			c6.2,1.2,5.2,4.9,5.3,8.8c0.4,9.2,0.2,18.5,1.4,27.6c1.4,10.6,8.8,15.9,19.3,14.5c6.7-0.9,12.9-3.1,18.1-8.2
			c6.2-6.1,10.6-13,13.6-21c1.6-4.2,3.2-8.9,8.7-8.1c5,0.7,7,5,8,9.5c0.3,1.6,0.2,3.2,0.3,4.8c0.2,3.6,1.8,7,5.6,6.1
			C488.6,73.8,490.4,70.4,491.3,69.5z M152.2,56.8c0-6,0.3-12.1-0.2-18.1c-0.2-2.3-1.8-5.9-3.6-6.5c-21.3-7.6-47.1-2-47.1,29.1
			c0,2,0,4,0.1,6c1.1,20.2,16.2,29,34.2,20.2c1.3-0.6,4-1.3,4.4-0.7c4,5.5,9.6,1.8,14.4,2.5c1.4,0.2,4.2-1.4,4.4-2.5
			c0.3-2.1-0.5-6.1-1.4-6.3c-6.8-1.2-4.9-6.3-5-10.4C152,65.6,152.2,61.2,152.2,56.8z M393.7,56.3c0-3.2,0-6.4,0-9.6
			c0-17.4,1.2-13.6-14.7-17c-14.2-3-30,1.8-34.9,19.8c-2.6,9.6-3.1,20.1,1.6,29.3c2.2,4.2,6.5,7.9,10.7,10.4
			c6.8,4,13.8,2.2,20.4-1.5c1.3-0.8,4.2-1.6,4.4-1.2c3.8,6,9.5,2,14.3,2.7c1.5,0.2,4.5-1.8,4.8-3.3c0.4-1.7-1-5.4-2.2-5.6
			c-4.4-1-4.5-3.8-4.4-7.1C393.8,67.5,393.7,61.9,393.7,56.3z M260.1,56c0-3.2,0-6.4,0-9.6c0.1-16.3,0.7-12.6-13.9-16.7
			c-4.1-1.2-8.8-0.8-13.1-0.2C222.9,31,215,36.2,211.3,46c-3.2,8.3-4.3,16.8-1.9,25.8c4.5,17.3,16.2,23.5,32.3,16.3
			c1.6-0.7,4.5-1.9,4.8-1.4c3.8,4.9,8.9,2.1,13.4,2.6c1.9,0.2,5-1.1,5.6-2.5c0.7-1.8-0.1-5.9-1.2-6.3c-5.5-2-3.8-6.3-4-10
			C260,65.6,260.2,60.8,260.1,56z M199,31.3c-3.4,0-5.8-0.2-8.2,0c-5.1,0.5-7.4-1.3-7.1-6.7c0.1-1.8-1.8-5.1-2.9-5.1
			c-1.9-0.1-4.1,1.5-5.7,3c-3.5,3-6.5,6.6-9.9,9.6c-3.5,3.1-4.1,7.8-0.6,8.4c6.3,1,5.1,4.9,5.3,8.7c0.4,9.6,0.7,19.2,1.1,28.9
			c0.2,4.7,2.2,8.6,6.6,10.7c7.3,3.5,14.8,3.2,22.1,0c1.2-0.5,2.9-2.4,2.7-3.4c-0.3-1.8-1.5-3.8-2.9-5c-1-0.8-3-0.4-4.5-0.5
			c-9.8-0.5-10.7-1.3-11-11.2c-0.2-6.4,0.2-12.9-0.1-19.3c-0.3-5.7,0.7-9.5,7.6-8.4C198.5,42.1,199.1,37.5,199,31.3z"/>
		<path class="st1" d="M306.8,0c5,6.2,9.6,12.6,18.7,13.4c4,0.4,6.1,3.2,5.6,7.7c-0.4,3.2-0.2,6.4-0.1,9.6c0.2,4.4-2.1,5.4-5.9,5.4
			c-3.6,0-5.7-0.3-6.3-4.9c-1-8.7-3.4-10.4-11.4-9.1c-8.8,1.5-15.5,5.4-18.2,15c-2.6,9.6-2.9,18.9,0.4,28.2
			c3.9,11.1,14.3,16.7,25.7,14c4.4-1,5.7-3.8,5.6-7.9c-0.2-3.4-0.1-6.4,4.8-6.3c5.1,0.1,7,2.4,7.2,7.4c0.5,12.2-2.2,14.9-14.1,17.3
			c-12.5,2.5-23.8,1.1-33.9-6.7c-7.5-5.7-11-14.1-11.6-22.9c-0.5-8.2,1.3-16.6,1.8-24.9c0.2-3.3,0-6.8-0.5-10.1
			c-0.4-2.7-1.8-5.3-2-8c-0.5-6.5,1-7.4,7.5-5.5c1.1,0.3,2.3,0.6,3.5,1c10.1,3.4,11.5,2.6,14-8.4c0.4-1.5,1.2-3,1.8-4.4
			C301.9,0,304.3,0,306.8,0z"/>
		<path class="st2" d="M45.6,12.4c5.2,0,10.5-0.3,15.7,0.1c17.5,1.4,29.5,13.8,30.5,31.3c0.2,3.2,0.2,6.4,0,9.6
			C90,80.7,72,90.2,53.9,89.4c-8-0.3-16.1,0.1-24.1-0.2c-2-0.1-5.5-1.5-5.6-2.5c-0.2-2.3,0.7-6,2.3-6.7c3.7-1.7,4.4-4.2,4.4-7.6
			c0-14.9,0-29.8,0-44.6c0-3.1-0.5-5-4.1-6.2c-1.4-0.5-2.5-4.4-2.3-6.6c0.1-1.1,3.4-2.5,5.4-2.7c5.2-0.4,10.4-0.1,15.7-0.1
			C45.6,12.2,45.6,12.3,45.6,12.4z M45.2,50C45.2,50,45.2,50,45.2,50c0,7.6-0.2,15.2,0.2,22.8c0.1,1.7,2.2,4.3,3.7,4.7
			c14.9,3.5,26.2-4.7,28-19.9c0.4-3.2,0.3-6.4,0.2-9.6c-0.4-17.6-9.4-25.6-26.6-24.2c-4.1,0.3-5.6,1.7-5.5,5.8
			C45.3,36.4,45.2,43.2,45.2,50z"/>
		<path class="st3" d="M491.3,69.5c-0.9,1-2.7,4.3-5.1,4.9c-3.8,0.9-5.3-2.5-5.6-6.1c-0.1-1.6,0-3.3-0.3-4.8c-1-4.5-3-8.8-8-9.5
			c-5.5-0.8-7.1,3.9-8.7,8.1c-3.1,7.9-7.4,14.9-13.6,21c-5.2,5.2-11.4,7.3-18.1,8.2c-10.5,1.4-17.9-3.9-19.3-14.5
			c-1.2-9.1-1-18.4-1.4-27.6c-0.2-3.9,0.9-7.6-5.3-8.8c-4-0.8-2.7-6.1,0.1-7.5c5.5-2.6,8.6-6.8,11.6-11.7c0.8-1.2,3.6-2.1,5.1-1.7
			c1.2,0.3,2.7,2.9,2.6,4.3c-0.5,5.8,1.6,8.1,7.5,7.6c3.4-0.3,7.6-1.1,7.2,5c-0.3,4.9-3.4,4.9-6.6,4.5c-6.4-0.7-8.5,1.9-8,8.2
			c0.5,7.6-0.2,15.3,0.2,22.9c0.4,7.3,4.9,9.8,11.5,6.8c6.9-3.2,10.8-9.4,14.3-15.8c1.7-3.1,2.5-6.7,4.3-9.8
			c5-8.7,10.4-11.2,19.9-9.8c6.8,1,13.1,7.6,14.7,15.7C490.8,61.8,490.8,64.7,491.3,69.5z"/>
		<path class="st4" d="M152.2,56.8c0,4.4-0.1,8.9,0,13.3c0.2,4.1-1.8,9.1,5,10.4c0.9,0.2,1.7,4.2,1.4,6.3c-0.2,1.1-3,2.7-4.4,2.5
			c-4.7-0.7-10.3,3-14.4-2.5c-0.4-0.6-3,0.1-4.4,0.7c-18,8.9-33.1,0-34.2-20.2c-0.1-2-0.1-4-0.1-6c0-31.1,25.8-36.7,47.1-29.1
			c1.8,0.6,3.4,4.2,3.6,6.5C152.5,44.7,152.2,50.7,152.2,56.8z M138.4,58.4c0-4-0.2-8,0-12c0.3-5.2-2.7-7.8-7.2-7
			c-4,0.7-8.6,2.3-11.4,5c-5.3,5.2-5.9,24.3-2,30.8c2.8,4.6,7.6,6.2,13.5,4.8c5.1-1.3,7-4.8,7-9.7C138.4,66.4,138.4,62.4,138.4,58.4
			z"/>
		<path class="st5" d="M393.7,56.3c0,5.6,0.1,11.2,0,16.8c0,3.4,0,6.2,4.4,7.1c1.2,0.3,2.6,3.9,2.2,5.6c-0.4,1.5-3.3,3.5-4.8,3.3
			c-4.7-0.7-10.4,3.3-14.3-2.7c-0.3-0.4-3.1,0.4-4.4,1.2c-6.6,3.7-13.7,5.6-20.4,1.5c-4.2-2.5-8.5-6.2-10.7-10.4
			c-4.7-9.2-4.2-19.7-1.6-29.3c4.9-18,20.7-22.8,34.9-19.8c16,3.4,14.7-0.5,14.7,17C393.7,49.8,393.7,53,393.7,56.3z M379.7,58.9
			C379.7,58.9,379.7,58.9,379.7,58.9c0-3.6,0.1-7.2,0-10.8c-0.3-7.9-3.9-10.6-11.3-8.6c-6.7,1.8-9.8,6.8-10.7,12.9
			c-0.8,5.9-0.7,12-0.1,17.9c0.7,7.1,5.1,10.2,12.3,9.9c7.2-0.3,9.3-2.5,9.7-10.6C379.9,66,379.7,62.5,379.7,58.9z"/>
		<path class="st4" d="M260.2,56c0,4.8-0.2,9.6,0.1,14.4c0.2,3.6-1.6,8,4,10c1.1,0.4,1.9,4.5,1.2,6.3c-0.6,1.4-3.7,2.6-5.6,2.5
			c-4.5-0.4-9.6,2.4-13.4-2.6c-0.4-0.5-3.2,0.7-4.8,1.4c-16.1,7.1-27.7,1-32.3-16.3c-2.4-9-1.2-17.5,1.9-25.8
			c3.8-9.8,11.7-15,21.8-16.5c4.3-0.6,9.1-1,13.1,0.2c14.7,4.2,14.1,0.5,13.9,16.7C260.1,49.6,260.1,52.8,260.2,56z M246.3,57.2
			c0-3.2,0.1-6.4,0-9.7c-0.3-7-3.1-9.8-9.6-8c-3.9,1.1-8.6,3.6-10.5,6.9c-4.7,8.2-5.5,17.5-2.2,26.7c2.3,6.3,5.3,7.9,12.1,7.3
			c5.9-0.5,9.5-3.7,10.1-9.9C246.6,66,246.2,61.6,246.3,57.2z"/>
		<path class="st6" d="M199,31.3c0.1,6.3-0.5,10.8-7.5,9.7c-6.9-1.1-8,2.7-7.6,8.4c0.4,6.4-0.1,12.9,0.1,19.3
			c0.3,9.9,1.2,10.7,11,11.2c1.5,0.1,3.5-0.3,4.5,0.5c1.4,1.2,2.6,3.2,2.9,5c0.2,1-1.5,2.8-2.7,3.4c-7.3,3.2-14.7,3.5-22.1,0
			c-4.5-2.1-6.4-6-6.6-10.7c-0.5-9.6-0.8-19.2-1.1-28.9c-0.1-3.8,1.1-7.8-5.3-8.7c-3.5-0.5-2.9-5.3,0.6-8.4c3.4-3.1,6.5-6.6,9.9-9.6
			c1.6-1.4,3.8-3.1,5.7-3c1.1,0,3,3.4,2.9,5.1c-0.3,5.4,2,7.2,7.1,6.7C193.2,31.1,195.6,31.3,199,31.3z"/>
		<path class="st0" d="M45.2,50c0-6.8,0.1-13.6-0.1-20.4c-0.1-4,1.5-5.4,5.5-5.8c17.3-1.4,26.3,6.6,26.6,24.2
			c0.1,3.2,0.2,6.4-0.2,9.6C75.3,72.8,64,81,49.1,77.5c-1.6-0.4-3.6-3-3.7-4.7C45,65.2,45.2,57.6,45.2,50C45.2,50,45.2,50,45.2,50z"
			/>
		<path class="st7" d="M138.4,58.4c0,4,0,8,0,12c0,4.9-1.9,8.4-7,9.7c-5.8,1.4-10.7-0.2-13.5-4.8c-3.9-6.4-3.3-25.6,2-30.8
			c2.8-2.8,7.4-4.3,11.4-5c4.6-0.8,7.5,1.8,7.2,7C138.2,50.4,138.4,54.4,138.4,58.4z"/>
		<path class="st8" d="M379.7,58.9c0,3.6,0.2,7.2,0,10.8c-0.4,8.1-2.6,10.3-9.7,10.6c-7.3,0.3-11.6-2.8-12.3-9.9
			c-0.6-5.9-0.7-12,0.1-17.9c0.8-6.1,4-11.1,10.7-12.9c7.4-2,11.1,0.7,11.3,8.6C379.8,51.7,379.7,55.3,379.7,58.9
			C379.7,58.9,379.7,58.9,379.7,58.9z"/>
		<path class="st9" d="M246.3,57.2c0,4.4,0.3,8.9-0.1,13.3c-0.6,6.2-4.2,9.4-10.1,9.9c-6.8,0.6-9.8-1-12.1-7.3
			c-3.3-9.2-2.6-18.5,2.2-26.7c1.9-3.3,6.6-5.8,10.5-6.9c6.5-1.8,9.4,1,9.6,8C246.4,50.7,246.3,53.9,246.3,57.2z"/>
	</g>
</g>
</svg>
